<?xml version="1.0" standalone="no"?>
<!DOCTYPE svg PUBLIC "-//W3C//DTD SVG 1.1//EN" "http://www.w3.org/Graphics/SVG/1.1/DTD/svg11.dtd" >
<svg xmlns="http://www.w3.org/2000/svg">
<metadata>
<json>
<![CDATA[
{
	"fontFamily": "construct",
	"majorVersion": 1,
	"minorVersion": 0,
	"version": "Version 1.0",
	"fontId": "construct",
	"psName": "construct",
	"subFamily": "Regular",
	"fullName": "construct",
	"description": "Font generated by IcoMoon."
}
]]>
</json>
</metadata>
<defs>
<font id="construct" horiz-adv-x="1024">
<font-face units-per-em="1024" ascent="960" descent="-64" />
<missing-glyph horiz-adv-x="1024" />
<glyph unicode="&#x20;" horiz-adv-x="512" d="" />
<glyph unicode="&#xe900;" glyph-name="triangle_outline" data-tags="triangle_outline" d="M512 618.667l221.705-384h-443.407l221.702 384zM548.949 725.333c-16.422 28.445-57.476 28.445-73.899 0l-295.604-512c-16.422-28.446 4.105-64 36.95-64h591.206c32.845 0 53.372 35.554 36.949 64l-295.603 512z" />
<glyph unicode="&#xe901;" glyph-name="alert" data-tags="alert" d="M475.051 725.333l-295.604-512c-16.422-28.446 4.105-64 36.95-64h591.206c32.845 0 53.372 35.554 36.949 64l-295.603 512c-16.422 28.445-57.476 28.445-73.899 0zM469.333 533.333c0 23.564 19.102 42.667 42.667 42.667s42.667-19.103 42.667-42.667v-128c0-23.565-19.102-42.667-42.667-42.667s-42.667 19.102-42.667 42.667v128zM512 320c23.565 0 42.667-19.102 42.667-42.667s-19.102-42.667-42.667-42.667c-23.565 0-42.667 19.102-42.667 42.667s19.102 42.667 42.667 42.667z" />
<glyph unicode="&#xe902;" glyph-name="arrow_down" data-tags="arrow_down" d="M801.835 510.101l-259.473-262.75c-16.704-16.913-44.015-16.913-60.719 0.004l-255.813 259.085c-16.662 16.661-16.662 43.677 0 60.34s43.677 16.663 60.34 0l225.834-222.17 229.491 225.83c16.661 16.662 43.674 16.662 60.339 0 16.661-16.663 16.661-43.677 0-60.339z" />
<glyph unicode="&#xe903;" glyph-name="arrow_down_solid" data-tags="arrow_down_solid" d="M780.497 503.164l-238.327-238.327c-16.661-16.661-43.678-16.661-60.339 0l-238.327 238.327c-26.879 26.88-7.842 72.836 30.17 72.836h476.655c38.012 0 57.050-45.956 30.17-72.836z" />
<glyph unicode="&#xe904;" glyph-name="arrow_left" data-tags="arrow_left" d="M574.101 158.165l-262.748 259.473c-16.916 16.704-16.915 44.015 0.003 60.719l259.085 255.813c16.661 16.662 43.678 16.662 60.339 0s16.661-43.677 0-60.34l-222.171-225.834 225.832-229.491c16.661-16.661 16.661-43.674 0-60.339-16.661-16.661-43.678-16.661-60.339 0z" />
<glyph unicode="&#xe905;" glyph-name="arrow_left_solid" data-tags="arrow_left_solid" d="M567.164 716.497l-238.327-238.327c-16.663-16.661-16.663-43.678 0-60.339l238.327-238.327c26.88-26.88 72.836-7.842 72.836 30.17v476.655c0 38.012-45.956 57.048-72.836 30.17z" />
<glyph unicode="&#xe906;" glyph-name="arrow_right" data-tags="arrow_right" d="M456.836 158.165l262.75 259.473c16.913 16.704 16.913 44.015-0.004 60.719l-259.085 255.813c-16.661 16.662-43.677 16.662-60.34 0s-16.662-43.677 0-60.34l222.17-225.834-225.83-229.491c-16.662-16.661-16.662-43.674 0-60.339 16.663-16.661 43.677-16.661 60.339 0z" />
<glyph unicode="&#xe907;" glyph-name="arrow_right_solid" data-tags="arrow_right_solid" d="M456.836 716.497l238.327-238.327c16.661-16.661 16.661-43.678 0-60.339l-238.327-238.327c-26.88-26.88-72.836-7.842-72.836 30.17v476.655c0 38.012 45.956 57.048 72.836 30.17z" />
<glyph unicode="&#xe908;" glyph-name="arrow_up" data-tags="arrow_up" d="M801.835 385.899l-259.473 262.748c-16.704 16.916-44.015 16.915-60.719-0.003l-255.813-259.085c-16.662-16.661-16.662-43.678 0-60.339s43.677-16.661 60.34 0l225.834 222.171 229.491-225.832c16.661-16.661 43.674-16.661 60.339 0 16.661 16.661 16.661 43.678 0 60.339z" />
<glyph unicode="&#xe909;" glyph-name="arrow_up_solid" data-tags="arrow_up_solid" d="M780.497 392.836l-238.327 238.327c-16.661 16.663-43.678 16.663-60.339 0l-238.327-238.327c-26.879-26.88-7.842-72.836 30.17-72.836h476.655c38.012 0 57.050 45.956 30.17 72.836z" />
<glyph unicode="&#xe90a;" glyph-name="back" data-tags="back" d="M506.825 158.17l-262.747 259.469c-16.916 16.708-16.915 44.015 0.003 60.719l259.084 255.815c16.661 16.662 43.678 16.662 60.339 0 16.666-16.663 16.666-43.677 0-60.34l-183.165-183.166h387.662c23.565 0 42.667-19.102 42.667-42.667s-19.102-42.667-42.667-42.667h-387.66l186.824-186.825c16.661-16.661 16.661-43.678 0-60.339s-43.678-16.661-60.339 0z" />
<glyph unicode="&#xe90b;" glyph-name="bookmark" data-tags="bookmark" d="M512 320l-213.333-170.667v554.667c0 23.564 19.103 42.667 42.667 42.667h341.333c23.565 0 42.667-19.103 42.667-42.667v-554.667l-213.333 170.667z" />
<glyph unicode="&#xe90c;" glyph-name="bookmark_outline" data-tags="bookmark_outline" d="M512 320l213.333-170.667v554.667c0 23.564-19.102 42.667-42.667 42.667h-341.333c-23.564 0-42.667-19.103-42.667-42.667v-554.667l213.333 170.667zM640 326.878l-128 102.4-128-102.4v334.455h256v-334.455zM512 320l-53.308 66.633 53.308 42.645 53.308-42.645-53.308-66.633zM298.667 149.333l53.307-66.633-138.641-110.912v177.545h85.333zM725.333 149.333h85.333v-177.545l-138.641 110.912 53.308 66.633zM640 326.878h85.333v-177.545l-138.641 110.912 53.308 66.633zM512 429.278l-53.308 66.637 53.308 42.645 53.308-42.645-53.308-66.637zM384 326.878l53.308-66.633-138.641-110.912v177.545h85.333zM384 661.333h-85.333v85.333h85.333v-85.333zM640 661.333v85.333h85.333v-85.333h-85.333zM213.333 704c0 70.692 57.308 128 128 128v-170.667c23.564 0 42.667 19.102 42.667 42.667h-170.667zM341.333 832h341.333v-170.667h-341.333v170.667zM682.667 832c70.694 0 128-57.308 128-128h-170.667c0-23.564 19.102-42.667 42.667-42.667v170.667zM469.333 661.333v-334.455h-170.667v334.455h170.667zM640 576h-256v170.667h256v-170.667zM554.667 326.878v334.455h170.667v-334.455h-170.667zM565.308 253.367l-213.334-170.667-106.615 133.265 213.333 170.667 106.615-133.265zM213.333 149.333v554.667h170.667v-554.667h-170.667zM810.667 704v-554.667h-170.667v554.667h170.667zM672.026 82.701l-213.333 170.667 106.615 133.265 213.333-170.667-106.615-133.265zM565.308 495.915l128-102.4-106.615-133.269-128 102.4 106.615 133.269zM330.693 393.515l128 102.4 106.615-133.269-128-102.4-106.615 133.269z" />
<glyph unicode="&#xe90d;" glyph-name="check" data-tags="check" d="M181.333 394.667l215.163-215.164c16.663-16.661 43.678-16.661 60.34 0l385.83 385.83c17.673 17.673 17.673 46.327 0 64s-46.327 17.673-64 0l-352-352-181.333 181.333c-17.673 17.673-46.327 17.673-64 0s-17.673-46.327 0-64z" />
<glyph unicode="&#xe90e;" glyph-name="checkbox_check" data-tags="checkbox_check" d="M298.667 661.333h426.667v-426.667h-426.667v426.667zM256 746.667c-23.564 0-42.667-19.103-42.667-42.667v-512c0-23.565 19.103-42.667 42.667-42.667h512c23.565 0 42.667 19.102 42.667 42.667v512c0 23.564-19.102 42.667-42.667 42.667h-512zM352 394.667l87.164-87.164c16.661-16.661 43.678-16.661 60.339 0l172.497 172.497c17.673 17.673 17.673 46.327 0 64s-46.327 17.673-64 0l-138.667-138.667-53.333 53.333c-17.673 17.673-46.327 17.673-64 0s-17.673-46.327 0-64z" />
<glyph unicode="&#xe90f;" glyph-name="checkbox_off" data-tags="checkbox_off" d="M298.667 661.333h426.667v-426.667h-426.667v426.667zM256 746.667c-23.564 0-42.667-19.103-42.667-42.667v-512c0-23.565 19.103-42.667 42.667-42.667h512c23.565 0 42.667 19.102 42.667 42.667v512c0 23.564-19.102 42.667-42.667 42.667h-512z" />
<glyph unicode="&#xe910;" glyph-name="checkbox_on" data-tags="checkbox_on" d="M298.667 661.333h426.667v-426.667h-426.667v426.667zM256 746.667c-23.564 0-42.667-19.103-42.667-42.667v-512c0-23.565 19.103-42.667 42.667-42.667h512c23.565 0 42.667 19.102 42.667 42.667v512c0 23.564-19.102 42.667-42.667 42.667h-512zM384 576h256v-256h-256v256z" />
<glyph unicode="&#xe911;" glyph-name="circle" data-tags="circle" d="M810.667 448c0-164.949-133.718-298.667-298.667-298.667s-298.667 133.718-298.667 298.667c0 164.949 133.718 298.667 298.667 298.667s298.667-133.718 298.667-298.667z" />
<glyph unicode="&#xe912;" glyph-name="circle_outline" data-tags="circle_outline" d="M512 234.667c-117.821 0-213.333 95.514-213.333 213.333s95.513 213.333 213.333 213.333c117.82 0 213.333-95.513 213.333-213.333s-95.514-213.333-213.333-213.333zM512 149.333c164.949 0 298.667 133.717 298.667 298.667s-133.717 298.667-298.667 298.667c-164.949 0-298.667-133.718-298.667-298.667s133.718-298.667 298.667-298.667z" />
<glyph unicode="&#xe913;" glyph-name="close" data-tags="close" d="M225.83 222.17c-16.662-16.661-16.662-43.678 0-60.339s43.677-16.661 60.34 0l225.83 225.83 229.491-229.491c16.661-16.661 43.678-16.661 60.339 0s16.661 43.678 0 60.339l-229.491 229.491 225.83 225.833c16.666 16.663 16.666 43.677 0 60.34-16.661 16.662-43.678 16.662-60.339 0l-225.83-225.833-225.83 225.831c-16.662 16.663-43.677 16.663-60.34 0s-16.662-43.677 0-60.34l225.83-225.831-225.831-225.83z" />
<glyph unicode="&#xe914;" glyph-name="collection" data-tags="collection" d="M213.333 789.333c-23.564 0-42.667-19.103-42.667-42.667v-341.333c0-23.565 19.103-42.667 42.667-42.667h42.667v298.667c0 23.564 19.103 42.667 42.667 42.667h298.667v42.667c0 23.564-19.102 42.667-42.667 42.667h-341.333zM341.333 661.333c-23.564 0-42.667-19.103-42.667-42.667v-341.333c0-23.565 19.103-42.667 42.667-42.667h42.667v298.667c0 23.564 19.103 42.667 42.667 42.667h298.667v42.667c0 23.564-19.102 42.667-42.667 42.667h-341.333zM426.667 490.667c0 23.565 19.102 42.667 42.667 42.667h341.333c23.565 0 42.667-19.102 42.667-42.667v-341.333c0-23.565-19.102-42.667-42.667-42.667h-341.333c-23.565 0-42.667 19.102-42.667 42.667v341.333z" />
<glyph unicode="&#xe915;" glyph-name="construct" data-tags="construct" d="M213.335 746.667h170.701v-170.701h-170.701v170.701zM426.709 746.667h170.701v-170.701h-170.701v170.701zM640.085 746.667h170.701v-170.701h-170.701v170.701zM213.333 533.291h170.701v-170.7h-170.701v170.7zM213.333 319.915h170.701v-170.701h-170.701v170.701zM426.709 319.915h170.701v-170.701h-170.701v170.701zM640.085 319.915h170.701v-170.701h-170.701v170.701z" />
<glyph unicode="&#xe916;" glyph-name="error" data-tags="error" d="M810.667 448c0 164.949-133.717 298.667-298.667 298.667s-298.667-133.718-298.667-298.667c0-164.949 133.718-298.667 298.667-298.667s298.667 133.717 298.667 298.667zM469.333 576c0 23.564 19.102 42.667 42.667 42.667s42.667-19.103 42.667-42.667v-128c0-23.565-19.102-42.667-42.667-42.667s-42.667 19.102-42.667 42.667v128zM512 362.667c23.565 0 42.667-19.102 42.667-42.667s-19.102-42.667-42.667-42.667c-23.565 0-42.667 19.102-42.667 42.667s19.102 42.667 42.667 42.667z" />
<glyph unicode="&#xe917;" glyph-name="filter" data-tags="filter" d="M597.333 409.903l166.34 237.629c19.793 28.278-0.435 67.134-34.957 67.134h-433.436c-34.518 0-54.749-38.856-34.954-67.134l166.339-237.629v-260.57l170.667 85.333v175.236z" />
<glyph unicode="&#xe918;" glyph-name="folder" data-tags="folder" d="M213.333 661.333v-426.667c0-23.565 19.103-42.667 42.667-42.667h512c23.565 0 42.667 19.102 42.667 42.667v341.333c0 23.564-19.102 42.667-42.667 42.667h-229.632c-16.158 0-30.933 9.131-38.161 23.586l-19.081 38.162c-7.228 14.455-22.003 23.586-38.161 23.586h-186.965c-23.564 0-42.667-19.103-42.667-42.667z" />
<glyph unicode="&#xe919;" glyph-name="folder_open" data-tags="folder_open" d="M213.333 234.667v426.667c0 23.564 19.103 42.667 42.667 42.667h186.965c16.158 0 30.933-9.131 38.161-23.586l19.081-38.162c7.228-14.455 22.003-23.586 38.161-23.586h229.632c23.565 0 42.667-19.103 42.667-42.667v-341.333c0-23.565-19.102-42.667-42.667-42.667h-512c-23.564 0-42.667 19.102-42.667 42.667zM320 533.333c-11.782 0-21.333-9.553-21.333-21.333v-213.333c0-11.78 9.551-21.333 21.333-21.333h384c11.78 0 21.333 9.553 21.333 21.333v213.333c0 11.78-9.553 21.333-21.333 21.333h-384z" />
<glyph unicode="&#xe91a;" glyph-name="forward" data-tags="forward" d="M535.232 158.165l262.75 259.473c16.913 16.704 16.913 44.015-0.004 60.719l-259.085 255.813c-16.661 16.662-43.678 16.662-60.339 0s-16.661-43.677 0-60.34l183.164-183.168h-387.659c-23.564 0-42.667-19.102-42.667-42.667 0-23.561 19.102-42.667 42.667-42.667h387.659l-186.825-186.825c-16.661-16.661-16.661-43.674 0-60.339 16.661-16.661 43.678-16.661 60.339 0z" />
<glyph unicode="&#xe91b;" glyph-name="grid" data-tags="grid" d="M256 746.667h170.667c23.564 0 42.667-19.103 42.667-42.667v-170.667c0-23.564-19.103-42.667-42.667-42.667h-170.667c-23.564 0-42.667 19.103-42.667 42.667v170.667c0 23.564 19.103 42.667 42.667 42.667zM597.333 746.667h170.667c23.564 0 42.667-19.103 42.667-42.667v-170.667c0-23.564-19.103-42.667-42.667-42.667h-170.667c-23.564 0-42.667 19.103-42.667 42.667v170.667c0 23.564 19.103 42.667 42.667 42.667zM256 405.333h170.667c23.564 0 42.667-19.103 42.667-42.667v-170.667c0-23.564-19.103-42.667-42.667-42.667h-170.667c-23.564 0-42.667 19.103-42.667 42.667v170.667c0 23.564 19.103 42.667 42.667 42.667zM597.333 405.333h170.667c23.564 0 42.667-19.103 42.667-42.667v-170.667c0-23.564-19.103-42.667-42.667-42.667h-170.667c-23.564 0-42.667 19.103-42.667 42.667v170.667c0 23.564 19.103 42.667 42.667 42.667z" />
<glyph unicode="&#xe91c;" glyph-name="group_list" data-tags="group_list" d="M298.667 704h512c23.564 0 42.667-19.103 42.667-42.667s-19.103-42.667-42.667-42.667h-512c-23.564 0-42.667 19.103-42.667 42.667s19.103 42.667 42.667 42.667zM469.333 490.667h341.333c23.564 0 42.667-19.103 42.667-42.667s-19.103-42.667-42.667-42.667h-341.333c-23.564 0-42.667 19.103-42.667 42.667s19.103 42.667 42.667 42.667zM469.333 277.333h341.333c23.564 0 42.667-19.103 42.667-42.667s-19.103-42.667-42.667-42.667h-341.333c-23.564 0-42.667 19.103-42.667 42.667s19.103 42.667 42.667 42.667z" />
<glyph unicode="&#xe91d;" glyph-name="home" data-tags="home" d="M222.17 448c-19.006 0-28.524 22.98-15.085 36.42l274.746 274.743c16.661 16.663 43.678 16.663 60.339 0l274.743-274.743c13.44-13.44 3.921-36.42-15.083-36.42h-76.497v-298.667h-149.333v170.667h-128v-170.667h-149.333v298.667h-76.497z" />
<glyph unicode="&#xe91e;" glyph-name="list" data-tags="list" d="M256 490.667h512c23.564 0 42.667-19.103 42.667-42.667s-19.103-42.667-42.667-42.667h-512c-23.564 0-42.667 19.103-42.667 42.667s19.103 42.667 42.667 42.667zM256 704h512c23.564 0 42.667-19.103 42.667-42.667s-19.103-42.667-42.667-42.667h-512c-23.564 0-42.667 19.103-42.667 42.667s19.103 42.667 42.667 42.667zM256 277.333h512c23.564 0 42.667-19.103 42.667-42.667s-19.103-42.667-42.667-42.667h-512c-23.564 0-42.667 19.103-42.667 42.667s19.103 42.667 42.667 42.667z" />
<glyph unicode="&#xe91f;" glyph-name="menu" data-tags="menu" d="M213.333 661.333c0 23.564 19.103 42.667 42.667 42.667h512c23.565 0 42.667-19.103 42.667-42.667s-19.102-42.667-42.667-42.667h-512c-23.564 0-42.667 19.103-42.667 42.667zM213.333 448c0 23.565 19.103 42.667 42.667 42.667h512c23.565 0 42.667-19.102 42.667-42.667s-19.102-42.667-42.667-42.667h-512c-23.564 0-42.667 19.102-42.667 42.667zM213.333 234.667c0 23.565 19.103 42.667 42.667 42.667h512c23.565 0 42.667-19.102 42.667-42.667s-19.102-42.667-42.667-42.667h-512c-23.564 0-42.667 19.102-42.667 42.667z" />
<glyph unicode="&#xe920;" glyph-name="menu_dots" data-tags="menu_dots" d="M448 640c0 35.346 28.655 64 64 64s64-28.654 64-64c0-35.346-28.655-64-64-64s-64 28.654-64 64zM448 426.667c0 35.345 28.655 64 64 64s64-28.655 64-64c0-35.345-28.655-64-64-64s-64 28.655-64 64zM448 213.333c0 35.345 28.655 64 64 64s64-28.655 64-64c0-35.345-28.655-64-64-64s-64 28.655-64 64z" />
<glyph unicode="&#xe921;" glyph-name="minus" data-tags="minus" d="M256 490.667h512c23.564 0 42.667-19.103 42.667-42.667s-19.103-42.667-42.667-42.667h-512c-23.564 0-42.667 19.103-42.667 42.667s19.103 42.667 42.667 42.667z" />
<glyph unicode="&#xe922;" glyph-name="plus" data-tags="plus" d="M469.333 192c0-23.565 19.102-42.667 42.667-42.667s42.667 19.102 42.667 42.667v213.333h213.333c23.565 0 42.667 19.102 42.667 42.667s-19.102 42.667-42.667 42.667h-213.333v213.333c0 23.564-19.102 42.667-42.667 42.667s-42.667-19.103-42.667-42.667v-213.333h-213.333c-23.564 0-42.667-19.102-42.667-42.667s19.103-42.667 42.667-42.667h213.333v-213.333z" />
<glyph unicode="&#xe923;" glyph-name="question" data-tags="question" d="M469.333 149.333c0 23.565 19.102 42.667 42.667 42.667s42.667-19.102 42.667-42.667c0-23.565-19.102-42.667-42.667-42.667s-42.667 19.102-42.667 42.667zM512 661.333c-41.463 0-78.319-19.714-101.712-50.28-13.858-18.108-38.414-28.99-58.809-18.793-21.576 10.788-31.78 36.646-18.666 56.893 38.009 58.684 104.064 97.514 179.187 97.514 117.82 0 213.333-95.513 213.333-213.333 0-103.211-73.293-189.299-170.667-209.067v-46.933c0-23.565-19.102-42.667-42.667-42.667s-42.667 19.102-42.667 42.667v85.333c0 23.565 19.102 42.667 42.667 42.667 70.69 0 128 57.306 128 128 0 70.692-57.31 128-128 128z" />
<glyph unicode="&#xe924;" glyph-name="refresh" data-tags="refresh" d="M753.387 450.108c7.829 2.935 16.657 1.024 22.575-4.89l107.541-107.546c16.661-16.661 16.661-43.678 0-60.339s-43.678-16.661-60.339 0l-39.437 39.437c-36.954-109.739-140.693-188.77-262.891-188.77-111.947 0-208.323 66.3-252.146 161.719-9.834 21.414 3.639 45.201 26.314 51.614s45.868-7.125 57.152-27.81c32.572-59.712 95.938-100.19 168.68-100.19 82.88 0 153.489 52.51 180.386 126.076l-61.453-23.044c-22.063-8.273-46.66 2.906-54.933 24.969s2.906 46.656 24.969 54.929l143.582 53.845zM288.29 424.559c-7.833-2.935-16.66-1.024-22.576 4.89l-107.543 107.545c-16.662 16.663-16.662 43.677 0 60.34s43.677 16.662 60.34 0l39.435-39.436c36.955 109.737 140.694 188.769 262.891 188.769 111.949 0 208.324-66.301 252.147-161.722 9.835-21.414-3.639-45.199-26.313-51.612s-45.867 7.125-57.152 27.811c-32.572 59.709-95.936 100.189-168.683 100.189-82.876 0-153.489-52.51-180.382-126.076l61.452 23.044c22.064 8.274 46.657-2.905 54.93-24.969s-2.906-46.656-24.969-54.929l-143.578-53.845z" />
<glyph unicode="&#xe925;" glyph-name="search" data-tags="search" d="M617.664 281.993l132.659-132.659c16.661-16.661 43.678-16.661 60.339 0 16.666 16.661 16.666 43.678 0 60.339l-132.659 132.659c29.803 41.852 47.33 93.047 47.33 148.335 0 141.385-114.615 256-256 256s-256.001-114.615-256.001-256c0-141.385 114.615-256 256.001-256 55.287 0 106.483 17.527 148.331 47.326zM640 490.667c0-94.255-76.412-170.667-170.667-170.667-94.257 0-170.668 76.412-170.668 170.667 0 94.257 76.41 170.667 170.668 170.667 94.255 0 170.667-76.41 170.667-170.667z" />
<glyph unicode="&#xe926;" glyph-name="settings" data-tags="settings" d="M595.29 712.609c7.821-2.46 15.492-5.256 22.997-8.373 15.27-6.341 32.939-5.299 46.204 4.571l33.877 25.205c23.057-15.054 44.181-32.821 62.921-52.847l-18.948-37.752c-7.415-14.774-5.376-32.35 3.524-46.279 4.39-6.87 8.486-13.946 12.271-21.212 7.629-14.649 21.82-25.185 38.31-26.15l42.219-2.471c7.838-25.811 12.698-52.917 14.182-80.919l-38.797-16.751c-15.177-6.549-24.913-21.321-27.042-37.713-1.062-8.162-2.475-16.209-4.228-24.132-3.571-16.128 0.529-33.327 12.54-44.663l30.746-29.026c-10.859-25.438-24.721-49.293-41.135-71.113l-40.525 12.122c-15.825 4.732-32.764-0.311-44.932-11.477-6.020-5.525-12.288-10.79-18.778-15.774-13.094-10.048-20.996-25.847-19.085-42.244l4.902-42.048c-24.205-12.309-50.078-21.82-77.184-28.096l-23.283 35.375c-9.071 13.781-25.271 20.813-41.758 20.096-4.075-0.179-8.171-0.269-12.288-0.269s-8.213 0.090-12.288 0.269c-16.486 0.717-32.687-6.315-41.758-20.096l-23.279-35.375c-27.11 6.276-52.982 15.787-77.189 28.096l4.903 42.048c1.911 16.397-5.987 32.196-19.081 42.244-6.493 4.983-12.759 10.249-18.781 15.774-12.167 11.166-29.108 16.209-44.93 11.477l-40.526-12.122c-16.416 21.82-30.277 45.675-41.137 71.113l30.748 29.026c12.012 11.337 16.111 28.535 12.54 44.663-1.754 7.923-3.169 15.97-4.229 24.132-2.129 16.393-11.866 31.164-27.040 37.713l-38.799 16.751c1.486 28.002 6.347 55.108 14.183 80.919l42.22 2.471c16.488 0.965 30.682 11.502 38.311 26.15 3.784 7.265 7.88 14.342 12.27 21.212 8.901 13.929 10.938 31.505 3.523 46.279l-18.946 37.751c18.739 20.026 39.863 37.793 62.919 52.847l33.877-25.205c13.265-9.87 30.932-10.912 46.202-4.57 7.506 3.117 15.178 5.914 22.998 8.373 15.778 4.96 28.646 17.116 32.461 33.205l9.749 41.072c13.466 1.616 27.179 2.447 41.079 2.447 13.905 0 27.614-0.831 41.079-2.447l9.749-41.072c3.819-16.090 16.687-28.245 32.461-33.205zM512 256c106.039 0 192 85.961 192 192s-85.961 192-192 192c-106.039 0-192-85.961-192-192s85.961-192 192-192z" />
<glyph unicode="&#xe927;" glyph-name="sort" data-tags="sort" d="M695.164 332.497l-152.994-152.994c-16.661-16.661-43.678-16.661-60.339 0l-152.994 152.994c-26.879 26.88-7.842 72.836 30.17 72.836h305.988c38.012 0 57.050-45.956 30.17-72.836zM695.164 563.503l-152.994 152.993c-16.661 16.663-43.678 16.663-60.339 0l-152.994-152.993c-26.879-26.879-7.842-72.837 30.17-72.837h305.988c38.012 0 57.050 45.958 30.17 72.837z" />
<glyph unicode="&#xe928;" glyph-name="square" data-tags="square" d="M256 746.667h512c23.564 0 42.667-19.103 42.667-42.667v-512c0-23.564-19.103-42.667-42.667-42.667h-512c-23.564 0-42.667 19.103-42.667 42.667v512c0 23.564 19.103 42.667 42.667 42.667z" />
<glyph unicode="&#xe929;" glyph-name="square_outline" data-tags="square_outline" d="M298.667 661.333h426.667v-426.667h-426.667v426.667zM256 746.667c-23.564 0-42.667-19.103-42.667-42.667v-512c0-23.565 19.103-42.667 42.667-42.667h512c23.565 0 42.667 19.102 42.667 42.667v512c0 23.564-19.102 42.667-42.667 42.667h-512z" />
<glyph unicode="&#xe92a;" glyph-name="tree" data-tags="tree" d="M256 704c-23.564 0-42.667-19.103-42.667-42.667s19.103-42.667 42.667-42.667h128v-384c0-23.565 19.103-42.667 42.667-42.667h341.333c23.565 0 42.667 19.102 42.667 42.667s-19.102 42.667-42.667 42.667h-298.667v128h298.667c23.565 0 42.667 19.102 42.667 42.667s-19.102 42.667-42.667 42.667h-298.667v128h298.667c23.565 0 42.667 19.103 42.667 42.667s-19.102 42.667-42.667 42.667h-512z" />
<glyph unicode="&#xe92b;" glyph-name="triangle" data-tags="triangle" d="M475.051 725.333c16.422 28.445 57.476 28.445 73.899 0l295.603-512c16.422-28.446-4.105-64-36.949-64h-591.206c-32.845 0-53.373 35.554-36.951 64l295.604 512z" />
</font>
</defs>
</svg>
